<svg width="100%" viewBox="0 0 680 510" xmlns="http://www.w3.org/2000/svg">
<rect x="121" y="36" width="438" height="438" rx="14" fill="#f0f9ff" stroke="#bae6fd" stroke-width="1.5"/>
<rect x="152" y="67" width="17" height="17" rx="3" fill="#0369a1"/>
<rect x="170" y="67" width="17" height="17" rx="3" fill="#0369a1"/>
<rect x="188" y="67" width="17" height="17" rx="3" fill="#0369a1"/>
<rect x="206" y="67" width="17" height="17" rx="3" fill="#0369a1"/>
<rect x="224" y="67" width="17" height="17" rx="3" fill="#0369a1"/>
<rect x="242" y="67" width="17" height="17" rx="3" fill="#0369a1"/>
<rect x="260" y="67" width="17" height="17" rx="3" fill="#0369a1"/>
<rect x="350" y="67" width="17" height="17" rx="3" fill="#0369a1"/>
<rect x="404" y="67" width="17" height="17" rx="3" fill="#0369a1"/>
<rect x="422" y="67" width="17" height="17" rx="3" fill="#0369a1"/>
<rect x="440" y="67" width="17" height="17" rx="3" fill="#0369a1"/>
<rect x="458" y="67" width="17" height="17" rx="3" fill="#0369a1"/>
<rect x="476" y="67" width="17" height="17" rx="3" fill="#0369a1"/>
<rect x="494" y="67" width="17" height="17" rx="3" fill="#0369a1"/>
<rect x="512" y="67" width="17" height="17" rx="3" fill="#0369a1"/>
<rect x="152" y="85" width="17" height="17" rx="3" fill="#0369a1"/>
<rect x="260" y="85" width="17" height="17" rx="3" fill="#0369a1"/>
<rect x="314" y="85" width="17" height="17" rx="3" fill="#0369a1"/>
<rect x="332" y="85" width="17" height="17" rx="3" fill="#0369a1"/>
<rect x="368" y="85" width="17" height="17" rx="3" fill="#0369a1"/>
<rect x="404" y="85" width="17" height="17" rx="3" fill="#0369a1"/>
<rect x="512" y="85" width="17" height="17" rx="3" fill="#0369a1"/>
<rect x="152" y="103" width="17" height="17" rx="3" fill="#0369a1"/>
<rect x="188" y="103" width="17" height="17" rx="3" fill="#0369a1"/>
<rect x="206" y="103" width="17" height="17" rx="3" fill="#0369a1"/>
<rect x="224" y="103" width="17" height="17" rx="3" fill="#0369a1"/>
<rect x="260" y="103" width="17" height="17" rx="3" fill="#0369a1"/>
<rect x="314" y="103" width="17" height="17" rx="3" fill="#0369a1"/>
<rect x="404" y="103" width="17" height="17" rx="3" fill="#0369a1"/>
<rect x="440" y="103" width="17" height="17" rx="3" fill="#0369a1"/>
<rect x="458" y="103" width="17" height="17" rx="3" fill="#0369a1"/>
<rect x="476" y="103" width="17" height="17" rx="3" fill="#0369a1"/>
<rect x="512" y="103" width="17" height="17" rx="3" fill="#0369a1"/>
<rect x="152" y="121" width="17" height="17" rx="3" fill="#0369a1"/>
<rect x="188" y="121" width="17" height="17" rx="3" fill="#0369a1"/>
<rect x="206" y="121" width="17" height="17" rx="3" fill="#0369a1"/>
<rect x="224" y="121" width="17" height="17" rx="3" fill="#0369a1"/>
<rect x="260" y="121" width="17" height="17" rx="3" fill="#0369a1"/>
<rect x="368" y="121" width="17" height="17" rx="3" fill="#0369a1"/>
<rect x="404" y="121" width="17" height="17" rx="3" fill="#0369a1"/>
<rect x="440" y="121" width="17" height="17" rx="3" fill="#0369a1"/>
<rect x="458" y="121" width="17" height="17" rx="3" fill="#0369a1"/>
<rect x="476" y="121" width="17" height="17" rx="3" fill="#0369a1"/>
<rect x="512" y="121" width="17" height="17" rx="3" fill="#0369a1"/>
<rect x="152" y="139" width="17" height="17" rx="3" fill="#0369a1"/>
<rect x="188" y="139" width="17" height="17" rx="3" fill="#0369a1"/>
<rect x="206" y="139" width="17" height="17" rx="3" fill="#0369a1"/>
<rect x="224" y="139" width="17" height="17" rx="3" fill="#0369a1"/>
<rect x="260" y="139" width="17" height="17" rx="3" fill="#0369a1"/>
<rect x="314" y="139" width="17" height="17" rx="3" fill="#0369a1"/>
<rect x="332" y="139" width="17" height="17" rx="3" fill="#0369a1"/>
<rect x="404" y="139" width="17" height="17" rx="3" fill="#0369a1"/>
<rect x="440" y="139" width="17" height="17" rx="3" fill="#0369a1"/>
<rect x="458" y="139" width="17" height="17" rx="3" fill="#0369a1"/>
<rect x="476" y="139" width="17" height="17" rx="3" fill="#0369a1"/>
<rect x="512" y="139" width="17" height="17" rx="3" fill="#0369a1"/>
<rect x="152" y="157" width="17" height="17" rx="3" fill="#0369a1"/>
<rect x="260" y="157" width="17" height="17" rx="3" fill="#0369a1"/>
<rect x="332" y="157" width="17" height="17" rx="3" fill="#0369a1"/>
<rect x="404" y="157" width="17" height="17" rx="3" fill="#0369a1"/>
<rect x="512" y="157" width="17" height="17" rx="3" fill="#0369a1"/>
<rect x="152" y="175" width="17" height="17" rx="3" fill="#0369a1"/>
<rect x="170" y="175" width="17" height="17" rx="3" fill="#0369a1"/>
<rect x="188" y="175" width="17" height="17" rx="3" fill="#0369a1"/>
<rect x="206" y="175" width="17" height="17" rx="3" fill="#0369a1"/>
<rect x="224" y="175" width="17" height="17" rx="3" fill="#0369a1"/>
<rect x="242" y="175" width="17" height="17" rx="3" fill="#0369a1"/>
<rect x="260" y="175" width="17" height="17" rx="3" fill="#0369a1"/>
<rect x="296" y="175" width="17" height="17" rx="3" fill="#0369a1"/>
<rect x="332" y="175" width="17" height="17" rx="3" fill="#0369a1"/>
<rect x="368" y="175" width="17" height="17" rx="3" fill="#0369a1"/>
<rect x="404" y="175" width="17" height="17" rx="3" fill="#0369a1"/>
<rect x="422" y="175" width="17" height="17" rx="3" fill="#0369a1"/>
<rect x="440" y="175" width="17" height="17" rx="3" fill="#0369a1"/>
<rect x="458" y="175" width="17" height="17" rx="3" fill="#0369a1"/>
<rect x="476" y="175" width="17" height="17" rx="3" fill="#0369a1"/>
<rect x="494" y="175" width="17" height="17" rx="3" fill="#0369a1"/>
<rect x="512" y="175" width="17" height="17" rx="3" fill="#0369a1"/>
<rect x="314" y="193" width="17" height="17" rx="3" fill="#0369a1"/>
<rect x="350" y="193" width="17" height="17" rx="3" fill="#0369a1"/>
<rect x="368" y="193" width="17" height="17" rx="3" fill="#0369a1"/>
<rect x="260" y="211" width="17" height="17" rx="3" fill="#0369a1"/>
<rect x="332" y="211" width="17" height="17" rx="3" fill="#0369a1"/>
<rect x="152" y="229" width="17" height="17" rx="3" fill="#0369a1"/>
<rect x="170" y="229" width="17" height="17" rx="3" fill="#0369a1"/>
<rect x="206" y="229" width="17" height="17" rx="3" fill="#0369a1"/>
<rect x="224" y="229" width="17" height="17" rx="3" fill="#0369a1"/>
<rect x="386" y="229" width="17" height="17" rx="3" fill="#0369a1"/>
<rect x="440" y="229" width="17" height="17" rx="3" fill="#0369a1"/>
<rect x="476" y="229" width="17" height="17" rx="3" fill="#0369a1"/>
<rect x="512" y="229" width="17" height="17" rx="3" fill="#0369a1"/>
<rect x="152" y="247" width="17" height="17" rx="3" fill="#0369a1"/>
<rect x="242" y="247" width="17" height="17" rx="3" fill="#0369a1"/>
<rect x="260" y="247" width="17" height="17" rx="3" fill="#0369a1"/>
<rect x="332" y="247" width="17" height="17" rx="3" fill="#0369a1"/>
<rect x="386" y="247" width="17" height="17" rx="3" fill="#0369a1"/>
<rect x="476" y="247" width="17" height="17" rx="3" fill="#0369a1"/>
<rect x="152" y="265" width="17" height="17" rx="3" fill="#0369a1"/>
<rect x="224" y="265" width="17" height="17" rx="3" fill="#0369a1"/>
<rect x="242" y="265" width="17" height="17" rx="3" fill="#0369a1"/>
<rect x="278" y="265" width="17" height="17" rx="3" fill="#0369a1"/>
<rect x="314" y="265" width="17" height="17" rx="3" fill="#0369a1"/>
<rect x="332" y="265" width="17" height="17" rx="3" fill="#0369a1"/>
<rect x="350" y="265" width="17" height="17" rx="3" fill="#0369a1"/>
<rect x="386" y="265" width="17" height="17" rx="3" fill="#0369a1"/>
<rect x="440" y="265" width="17" height="17" rx="3" fill="#0369a1"/>
<rect x="458" y="265" width="17" height="17" rx="3" fill="#0369a1"/>
<rect x="476" y="265" width="17" height="17" rx="3" fill="#0369a1"/>
<rect x="494" y="265" width="17" height="17" rx="3" fill="#0369a1"/>
<rect x="512" y="265" width="17" height="17" rx="3" fill="#0369a1"/>
<rect x="206" y="283" width="17" height="17" rx="3" fill="#0369a1"/>
<rect x="260" y="283" width="17" height="17" rx="3" fill="#0369a1"/>
<rect x="278" y="283" width="17" height="17" rx="3" fill="#0369a1"/>
<rect x="314" y="283" width="17" height="17" rx="3" fill="#0369a1"/>
<rect x="422" y="283" width="17" height="17" rx="3" fill="#0369a1"/>
<rect x="458" y="283" width="17" height="17" rx="3" fill="#0369a1"/>
<rect x="476" y="283" width="17" height="17" rx="3" fill="#0369a1"/>
<rect x="494" y="283" width="17" height="17" rx="3" fill="#0369a1"/>
<rect x="152" y="301" width="17" height="17" rx="3" fill="#0369a1"/>
<rect x="170" y="301" width="17" height="17" rx="3" fill="#0369a1"/>
<rect x="206" y="301" width="17" height="17" rx="3" fill="#0369a1"/>
<rect x="224" y="301" width="17" height="17" rx="3" fill="#0369a1"/>
<rect x="242" y="301" width="17" height="17" rx="3" fill="#0369a1"/>
<rect x="260" y="301" width="17" height="17" rx="3" fill="#0369a1"/>
<rect x="296" y="301" width="17" height="17" rx="3" fill="#0369a1"/>
<rect x="314" y="301" width="17" height="17" rx="3" fill="#0369a1"/>
<rect x="350" y="301" width="17" height="17" rx="3" fill="#0369a1"/>
<rect x="404" y="301" width="17" height="17" rx="3" fill="#0369a1"/>
<rect x="422" y="301" width="17" height="17" rx="3" fill="#0369a1"/>
<rect x="440" y="301" width="17" height="17" rx="3" fill="#0369a1"/>
<rect x="458" y="301" width="17" height="17" rx="3" fill="#0369a1"/>
<rect x="476" y="301" width="17" height="17" rx="3" fill="#0369a1"/>
<rect x="494" y="301" width="17" height="17" rx="3" fill="#0369a1"/>
<rect x="512" y="301" width="17" height="17" rx="3" fill="#0369a1"/>
<rect x="152" y="319" width="17" height="17" rx="3" fill="#0369a1"/>
<rect x="170" y="319" width="17" height="17" rx="3" fill="#0369a1"/>
<rect x="188" y="319" width="17" height="17" rx="3" fill="#0369a1"/>
<rect x="206" y="319" width="17" height="17" rx="3" fill="#0369a1"/>
<rect x="224" y="319" width="17" height="17" rx="3" fill="#0369a1"/>
<rect x="242" y="319" width="17" height="17" rx="3" fill="#0369a1"/>
<rect x="260" y="319" width="17" height="17" rx="3" fill="#0369a1"/>
<rect x="350" y="319" width="17" height="17" rx="3" fill="#0369a1"/>
<rect x="368" y="319" width="17" height="17" rx="3" fill="#0369a1"/>
<rect x="386" y="319" width="17" height="17" rx="3" fill="#0369a1"/>
<rect x="458" y="319" width="17" height="17" rx="3" fill="#0369a1"/>
<rect x="476" y="319" width="17" height="17" rx="3" fill="#0369a1"/>
<rect x="494" y="319" width="17" height="17" rx="3" fill="#0369a1"/>
<rect x="512" y="319" width="17" height="17" rx="3" fill="#0369a1"/>
<rect x="152" y="337" width="17" height="17" rx="3" fill="#0369a1"/>
<rect x="260" y="337" width="17" height="17" rx="3" fill="#0369a1"/>
<rect x="332" y="337" width="17" height="17" rx="3" fill="#0369a1"/>
<rect x="350" y="337" width="17" height="17" rx="3" fill="#0369a1"/>
<rect x="386" y="337" width="17" height="17" rx="3" fill="#0369a1"/>
<rect x="404" y="337" width="17" height="17" rx="3" fill="#0369a1"/>
<rect x="440" y="337" width="17" height="17" rx="3" fill="#0369a1"/>
<rect x="476" y="337" width="17" height="17" rx="3" fill="#0369a1"/>
<rect x="512" y="337" width="17" height="17" rx="3" fill="#0369a1"/>
<rect x="152" y="355" width="17" height="17" rx="3" fill="#0369a1"/>
<rect x="188" y="355" width="17" height="17" rx="3" fill="#0369a1"/>
<rect x="206" y="355" width="17" height="17" rx="3" fill="#0369a1"/>
<rect x="224" y="355" width="17" height="17" rx="3" fill="#0369a1"/>
<rect x="260" y="355" width="17" height="17" rx="3" fill="#0369a1"/>
<rect x="314" y="355" width="17" height="17" rx="3" fill="#0369a1"/>
<rect x="332" y="355" width="17" height="17" rx="3" fill="#0369a1"/>
<rect x="350" y="355" width="17" height="17" rx="3" fill="#0369a1"/>
<rect x="404" y="355" width="17" height="17" rx="3" fill="#0369a1"/>
<rect x="422" y="355" width="17" height="17" rx="3" fill="#0369a1"/>
<rect x="440" y="355" width="17" height="17" rx="3" fill="#0369a1"/>
<rect x="458" y="355" width="17" height="17" rx="3" fill="#0369a1"/>
<rect x="152" y="373" width="17" height="17" rx="3" fill="#0369a1"/>
<rect x="188" y="373" width="17" height="17" rx="3" fill="#0369a1"/>
<rect x="206" y="373" width="17" height="17" rx="3" fill="#0369a1"/>
<rect x="224" y="373" width="17" height="17" rx="3" fill="#0369a1"/>
<rect x="260" y="373" width="17" height="17" rx="3" fill="#0369a1"/>
<rect x="350" y="373" width="17" height="17" rx="3" fill="#0369a1"/>
<rect x="368" y="373" width="17" height="17" rx="3" fill="#0369a1"/>
<rect x="422" y="373" width="17" height="17" rx="3" fill="#0369a1"/>
<rect x="440" y="373" width="17" height="17" rx="3" fill="#0369a1"/>
<rect x="476" y="373" width="17" height="17" rx="3" fill="#0369a1"/>
<rect x="512" y="373" width="17" height="17" rx="3" fill="#0369a1"/>
<rect x="152" y="391" width="17" height="17" rx="3" fill="#0369a1"/>
<rect x="188" y="391" width="17" height="17" rx="3" fill="#0369a1"/>
<rect x="206" y="391" width="17" height="17" rx="3" fill="#0369a1"/>
<rect x="224" y="391" width="17" height="17" rx="3" fill="#0369a1"/>
<rect x="260" y="391" width="17" height="17" rx="3" fill="#0369a1"/>
<rect x="314" y="391" width="17" height="17" rx="3" fill="#0369a1"/>
<rect x="368" y="391" width="17" height="17" rx="3" fill="#0369a1"/>
<rect x="386" y="391" width="17" height="17" rx="3" fill="#0369a1"/>
<rect x="404" y="391" width="17" height="17" rx="3" fill="#0369a1"/>
<rect x="422" y="391" width="17" height="17" rx="3" fill="#0369a1"/>
<rect x="152" y="409" width="17" height="17" rx="3" fill="#0369a1"/>
<rect x="260" y="409" width="17" height="17" rx="3" fill="#0369a1"/>
<rect x="314" y="409" width="17" height="17" rx="3" fill="#0369a1"/>
<rect x="332" y="409" width="17" height="17" rx="3" fill="#0369a1"/>
<rect x="404" y="409" width="17" height="17" rx="3" fill="#0369a1"/>
<rect x="440" y="409" width="17" height="17" rx="3" fill="#0369a1"/>
<rect x="458" y="409" width="17" height="17" rx="3" fill="#0369a1"/>
<rect x="476" y="409" width="17" height="17" rx="3" fill="#0369a1"/>
<rect x="512" y="409" width="17" height="17" rx="3" fill="#0369a1"/>
<rect x="152" y="427" width="17" height="17" rx="3" fill="#0369a1"/>
<rect x="170" y="427" width="17" height="17" rx="3" fill="#0369a1"/>
<rect x="188" y="427" width="17" height="17" rx="3" fill="#0369a1"/>
<rect x="206" y="427" width="17" height="17" rx="3" fill="#0369a1"/>
<rect x="224" y="427" width="17" height="17" rx="3" fill="#0369a1"/>
<rect x="242" y="427" width="17" height="17" rx="3" fill="#0369a1"/>
<rect x="260" y="427" width="17" height="17" rx="3" fill="#0369a1"/>
<rect x="296" y="427" width="17" height="17" rx="3" fill="#0369a1"/>
<rect x="314" y="427" width="17" height="17" rx="3" fill="#0369a1"/>
<rect x="350" y="427" width="17" height="17" rx="3" fill="#0369a1"/>
<rect x="368" y="427" width="17" height="17" rx="3" fill="#0369a1"/>
<rect x="440" y="427" width="17" height="17" rx="3" fill="#0369a1"/>
<rect x="494" y="427" width="17" height="17" rx="3" fill="#0369a1"/>
<rect x="512" y="427" width="17" height="17" rx="3" fill="#0369a1"/>
</svg>